<svg id="visual" viewBox="0 0 900 600" width="900" height="600" xmlns="http://www.w3.org/2000/svg" xmlns:xlink="http://www.w3.org/1999/xlink" version="1.1"><rect width="900" height="600" fill="#043454"></rect><g><g transform="translate(5 138)"><path d="M0 -147L127.3 -73.5L127.3 73.5L0 147L-127.3 73.5L-127.3 -73.5Z" fill="#2E83BB"></path></g><g transform="translate(831 369)"><path d="M0 -142L123 -71L123 71L0 142L-123 71L-123 -71Z" fill="#2E83BB"></path></g><g transform="translate(292 259)"><path d="M0 -109L94.4 -54.5L94.4 54.5L0 109L-94.4 54.5L-94.4 -54.5Z" fill="#2E83BB"></path></g><g transform="translate(704 98)"><path d="M0 -89L77.1 -44.5L77.1 44.5L0 89L-77.1 44.5L-77.1 -44.5Z" fill="#2E83BB"></path></g></g></svg>